<?xml version="1.0" standalone="no"?>
<!DOCTYPE svg PUBLIC "-//W3C//DTD SVG 20010904//EN"
 "http://www.w3.org/TR/2001/REC-SVG-20010904/DTD/svg10.dtd">
<svg version="1.0" xmlns="http://www.w3.org/2000/svg"
 width="200.000000pt" height="200.000000pt" viewBox="0 0 200.000000 200.000000"
 preserveAspectRatio="xMidYMid meet">
<metadata>
Created by potrace 1.14, written by Peter Selinger 2001-2017
</metadata>
<g transform="translate(0.000000,200.000000) scale(0.100000,-0.100000)"
fill="#000000" stroke="none">
<path d="M810 1960 c-241 -52 -429 -167 -580 -356 -224 -280 -275 -659 -133
-994 50 -118 113 -211 207 -306 203 -203 442 -299 726 -290 267 9 495 109 679
299 364 375 367 979 7 1355 -149 156 -319 250 -541 298 -75 16 -280 13 -365
-6z m346 -12 c16 -16 -177 -244 -308 -364 -101 -93 -128 -115 -217 -184 l-83
-65 -122 0 c-119 0 -122 -1 -196 -37 -45 -22 -96 -57 -128 -88 -28 -29 -52
-50 -52 -47 0 25 35 148 57 199 137 319 419 539 758 591 47 7 282 3 291 -5z
m69 -17 c9 -15 -133 -196 -237 -302 -140 -143 -361 -329 -392 -329 -14 0 -42
18 -36 23 3 2 25 18 50 37 188 143 396 343 505 487 65 86 94 108 110 84z m64
-32 c-32 -60 -179 -239 -274 -334 -115 -114 -125 -124 -240 -216 -105 -84
-116 -90 -138 -75 -16 13 -13 17 32 49 53 39 66 49 176 143 107 93 272 270
345 371 54 75 68 89 87 85 19 -4 21 -7 12 -23z m61 -11 c0 -15 -108 -165 -171
-238 -125 -144 -255 -266 -403 -378 -54 -40 -72 -49 -82 -41 -8 6 -14 15 -14
18 0 4 28 28 63 53 187 138 384 335 502 504 27 38 55 77 63 86 14 17 42 14 42
-4z m55 -18 c13 -22 -136 -220 -275 -364 -88 -92 -263 -246 -343 -304 -43 -31
-47 -31 -56 -14 -9 16 4 30 97 103 192 150 383 351 501 527 40 59 62 74 76 52z
m58 -43 c-106 -178 -339 -430 -559 -607 -116 -93 -129 -101 -140 -85 -11 15
-3 25 69 82 239 188 411 366 551 570 42 62 51 71 68 62 11 -6 16 -15 11 -22z
m57 -23 c0 -19 -158 -228 -241 -319 -134 -146 -244 -245 -412 -373 -75 -57
-87 -62 -87 -33 0 12 41 52 118 112 203 161 440 412 550 580 30 48 39 56 54
48 10 -5 18 -12 18 -15z m165 -128 c134 -135 226 -309 266 -501 14 -68 18
-243 7 -325 -10 -73 -56 -215 -57 -177 -1 33 -26 95 -48 119 -22 25 -79 41
-118 34 -18 -4 -47 -21 -64 -38 -25 -26 -31 -40 -30 -72 l1 -41 12 38 c21 69
75 74 97 10 31 -96 -25 -199 -184 -341 -20 -17 -39 -32 -42 -32 -3 0 -5 148
-5 330 0 234 3 337 12 355 9 21 9 31 0 46 -20 31 -14 57 24 99 l36 40 -37 88
c-49 112 -53 174 -19 275 20 56 25 87 22 139 l-4 66 41 -31 c22 -17 63 -53 90
-81z m-145 34 c0 -35 -10 -91 -24 -135 -36 -113 -31 -157 36 -304 l20 -43 -25
-27 c-32 -34 -47 -64 -47 -94 0 -20 -11 -30 -60 -53 l-60 -28 30 -24 c28 -22
29 -25 16 -51 -13 -24 -13 -35 1 -87 28 -104 6 -134 -102 -144 l-60 -5 -30
-60 c-25 -51 -30 -72 -30 -136 0 -67 3 -80 28 -112 15 -20 27 -48 27 -65 0
-29 -2 -30 -62 -41 -148 -24 -182 -25 -228 -1 -111 56 -185 210 -147 302 22
52 61 62 94 24 25 -29 29 -61 13 -116 l-10 -35 20 25 c56 69 64 159 19 224
-32 47 -72 68 -135 72 -44 2 -64 -3 -116 -29 -57 -29 -115 -86 -131 -129 -7
-19 -61 45 -97 117 l-31 60 36 20 c20 11 90 55 157 98 91 59 123 75 129 65 6
-9 9 -8 9 7 0 12 20 34 48 55 277 206 532 461 667 671 17 26 33 45 38 42 4 -2
7 -31 7 -63z m-1130 -390 c0 -4 -19 -21 -43 -38 -171 -122 -242 -329 -185
-535 69 -252 276 -471 524 -557 142 -50 325 -63 477 -34 40 8 73 14 75 14 2 0
2 -10 0 -22 -3 -20 -13 -25 -93 -40 -98 -18 -252 -18 -345 1 -216 44 -407 164
-537 338 -219 295 -221 592 -7 809 34 34 73 64 86 66 36 6 48 5 48 -2z m120
-10 c3 -1 -20 -14 -51 -30 -165 -85 -264 -251 -254 -426 13 -228 208 -474 463
-583 130 -55 325 -81 451 -60 25 4 63 10 84 14 32 5 37 4 37 -14 0 -11 -8 -22
-17 -25 -115 -33 -328 -34 -454 -2 -245 64 -427 212 -543 443 -122 244 -70
495 134 641 75 54 77 54 150 42z m-256 -27 c-36 -34 -91 -108 -117 -158 -83
-165 -78 -342 15 -530 139 -279 382 -461 680 -508 117 -18 278 -13 368 13 32
9 46 -1 36 -25 -10 -27 -88 -39 -251 -39 -166 0 -213 7 -345 55 -169 62 -335
190 -446 345 -96 135 -167 326 -163 443 6 170 88 353 178 401 47 25 71 26 45
3z m326 -8 l25 -13 -30 -7 c-141 -31 -251 -133 -295 -271 -33 -107 -13 -233
56 -338 123 -187 286 -312 474 -362 76 -20 243 -27 315 -14 120 22 115 22 115
1 0 -15 -9 -22 -32 -26 -18 -3 -55 -9 -82 -14 -51 -9 -229 -7 -281 4 -202 41
-398 164 -503 317 -50 72 -99 180 -112 242 -38 189 56 377 232 465 68 35 82
36 118 16z m79 -59 l23 -24 -46 0 c-153 0 -289 -126 -300 -278 -9 -109 47
-242 144 -343 43 -44 51 -58 48 -85 l-3 -31 -47 47 c-109 109 -185 249 -192
351 -12 168 115 342 271 375 66 14 79 12 102 -12z m-579 -67 c-16 -34 -34 -83
-41 -110 -7 -27 -16 -49 -20 -49 -13 0 2 114 18 140 15 24 64 80 69 80 2 0
-10 -28 -26 -61z m618 8 c16 -12 42 -61 42 -77 0 -6 -14 0 -30 12 -24 17 -44
22 -88 22 -86 -1 -164 -50 -204 -127 -41 -81 -8 -212 80 -324 42 -52 49 -76
33 -101 -13 -21 -96 79 -138 167 -33 68 -37 84 -37 156 0 95 24 155 84 209 80
72 209 104 258 63z m-115 -75 c-51 -39 -147 -94 -133 -76 26 33 54 55 95 74
50 24 67 25 38 2z m106 2 c3 -3 -6 -12 -19 -22 -41 -31 -235 -152 -242 -152
-13 0 -9 48 5 54 6 3 57 35 112 70 92 60 122 70 144 50z m41 -33 c9 -17 0 -26
-73 -74 -115 -76 -216 -137 -227 -137 -6 0 -10 10 -10 23 0 16 13 29 53 51 28
16 95 58 147 93 52 35 96 63 97 63 1 0 7 -9 13 -19z m748 -48 c6 -19 -23 -26
-49 -13 -15 9 -18 14 -10 20 19 11 54 7 59 -7z m2 -438 c0 -398 -1 -414 -32
-415 -5 0 -8 182 -8 404 0 377 1 405 18 408 9 3 18 4 20 3 1 -1 2 -181 2 -400z
m311 178 c33 -100 -17 -224 -142 -354 -52 -54 -130 -119 -143 -119 -3 0 -6 10
-6 22 0 14 35 56 103 122 111 109 147 167 154 245 5 54 -20 110 -56 127 l-24
12 24 4 c39 7 76 -18 90 -59z m44 13 c30 -41 28 -155 -4 -216 -62 -118 -180
-255 -284 -328 l-47 -33 0 29 c0 25 12 39 73 87 88 71 182 181 215 255 36 79
37 185 2 232 l-24 33 24 -16 c13 -9 33 -28 45 -43z m-1098 -7 c-21 -17 -46
-48 -57 -70 -37 -72 -32 -197 13 -301 l16 -37 -35 16 c-28 14 -37 26 -50 67
-27 92 -29 174 -4 239 23 60 43 80 108 103 51 18 51 18 9 -17z m141 12 c48
-25 42 -36 -20 -36 -56 0 -62 -2 -93 -37 -68 -74 -68 -180 0 -311 34 -65 34
-68 13 -62 -37 12 -54 32 -78 93 -47 120 -33 248 35 316 49 49 97 62 143 37z
m530 -633 c-7 -4 -16 -8 -20 -8 -5 0 -8 133 -8 296 0 271 2 298 18 310 16 12
17 -4 20 -289 2 -234 -1 -302 -10 -309z m-472 547 c9 -14 14 -39 12 -62 l-3
-38 -17 37 c-46 102 -151 55 -152 -67 0 -69 49 -170 107 -221 l42 -37 -43 6
c-50 6 -69 26 -111 112 -55 113 -53 212 5 270 50 51 127 50 160 0z m424 -269
c0 -295 -1 -304 -20 -309 -24 -6 -22 -34 -22 313 0 313 -1 288 20 293 9 3 18
5 20 6 1 0 2 -136 2 -303z m-60 -15 c0 -273 -2 -310 -16 -315 -9 -3 -19 -4
-22 -2 -5 3 -8 611 -3 624 1 1 10 2 21 2 20 0 20 -7 20 -309z m-710 240 c-12
-42 -5 -146 13 -199 16 -44 12 -46 -36 -10 -27 21 -25 131 4 198 24 56 34 62
19 11z m648 -163 l-3 -63 -18 34 c-24 43 -24 114 0 172 l18 44 3 -62 c2 -35 2
-91 0 -125z"/>
</g>
</svg>
