<?xml version="1.0" encoding="UTF-8" standalone="no"?>
<!-- Created with Inkscape (http://www.inkscape.org/) -->

<svg
   xmlns:dc="http://purl.org/dc/elements/1.1/"
   xmlns:cc="http://creativecommons.org/ns#"
   xmlns:rdf="http://www.w3.org/1999/02/22-rdf-syntax-ns#"
   xmlns:svg="http://www.w3.org/2000/svg"
   xmlns="http://www.w3.org/2000/svg"
   xmlns:sodipodi="http://sodipodi.sourceforge.net/DTD/sodipodi-0.dtd"
   xmlns:inkscape="http://www.inkscape.org/namespaces/inkscape"
   width="320"
   height="320"
   viewBox="0 0 299.99999 300.00001"
   id="svg2"
   version="1.1"
   inkscape:version="0.92.3 (2405546, 2018-03-11)"
   sodipodi:docname="base.svg"
   inkscape:export-filename="/home/thewizardplusplus/projects/tiktok-icon/base_64x64.png"
   inkscape:export-xdpi="19.200001"
   inkscape:export-ydpi="19.200001">
  <defs
     id="defs4" />
  <sodipodi:namedview
     id="base"
     pagecolor="#ffffff"
     bordercolor="#666666"
     borderopacity="1.0"
     inkscape:pageopacity="0.0"
     inkscape:pageshadow="2"
     inkscape:zoom="1.4"
     inkscape:cx="177.34259"
     inkscape:cy="159.02713"
     inkscape:document-units="px"
     inkscape:current-layer="layer2"
     showgrid="false"
     inkscape:window-width="1280"
     inkscape:window-height="771"
     inkscape:window-x="0"
     inkscape:window-y="0"
     inkscape:window-maximized="1"
     units="px" />
  <metadata
     id="metadata7">
    <rdf:RDF>
      <cc:Work
         rdf:about="">
        <dc:format>image/svg+xml</dc:format>
        <dc:type
           rdf:resource="http://purl.org/dc/dcmitype/StillImage" />
        <dc:title />
      </cc:Work>
    </rdf:RDF>
  </metadata>
  <g
     inkscape:groupmode="layer"
     id="layer2"
     inkscape:label="Layer 1"
     style="display:inline"
     transform="translate(0,-752.36214)">
    <g
       id="g95"
       transform="translate(-221.85742,376.21395)">
      <rect
         ry="71.308525"
         y="376.14819"
         x="221.85742"
         height="299.99948"
         width="299.99948"
         id="rect4146"
         style="fill:#000000;fill-opacity:1;stroke:none;stroke-width:3.14339042;stroke-miterlimit:4;stroke-dasharray:none;stroke-opacity:1" />
      <path
         sodipodi:nodetypes="ccccsssccssscccc"
         inkscape:connector-curvature="0"
         d="m 462.5,465.93363 c -56.07143,-5.35714 -55,-54.64285 -55,-54.64285 h -36.15439 v 155.64505 c -0.91152,16.64579 -14.67491,29.67613 -31.34564,29.67613 -17.33765,0 -31.3926,-14.05495 -31.3926,-31.3926 0,-17.33765 14.05495,-31.3926 31.3926,-31.3926 3.65897,0 7.28978,0.63967 10.72845,1.89013 l 0.35473,-41.09386 c -3.82692,-0.64891 -7.7016,-0.97509 -11.58315,-0.97509 -38.26544,0 -69.28571,31.02027 -69.28571,69.28571 0,38.26544 31.02027,69.28572 69.28571,69.28572 36.95878,0 67.41115,-29.0092 69.20413,-65.92446 v -81.07556 c 0,0 19.8673,17.14285 53.79587,17.85714 z"
         style="display:inline;fill:#ffffff;fill-opacity:1;stroke:none;stroke-width:1;stroke-miterlimit:4;stroke-dasharray:none;stroke-opacity:1"
         id="path4230" />
    </g>
  </g>
</svg>
